<?xml version="1.0" encoding="UTF-8" standalone="no"?>
<!-- Created with Inkscape (http://www.inkscape.org/) -->

<svg
   width="70.047691mm"
   height="66.582664mm"
   viewBox="0 0 70.047691 66.582664"
   version="1.1"
   id="svg1"
   xml:space="preserve"
   xmlns="http://www.w3.org/2000/svg"
   xmlns:svg="http://www.w3.org/2000/svg"><defs
     id="defs1" /><g
     id="layer1"
     transform="translate(-408.64483,-364.35797)"><path
       id="path1-6"
       style="stroke-width:5.64444"
       d="m 439.57782,369.0705 c -1.29081,0 -2.58162,0.34605 -3.73259,1.03818 l -26.57409,15.94579 c -0.38666,0.23199 -0.62632,0.6522 -0.62632,1.10588 0,0.45368 0.23708,0.87388 0.62632,1.10587 v -0.003 l 26.57667,15.9458 c 1.15226,0.69084 2.44113,1.03404 3.73259,1.03404 1.29145,0 2.58033,-0.34579 3.73259,-1.03404 l 18.95337,-11.37192 -1.88826,-1.8743 -18.39526,11.03705 c -1.48222,0.89192 -3.32782,0.89192 -4.81004,0 l -24.73389,-14.83992 24.73389,-14.83992 c 1.4848,-0.8919 3.32782,-0.8919 4.81004,0 l 7.16235,4.29741 1.87483,-1.88464 -7.70961,-4.62452 c -1.15097,-0.69213 -2.44178,-1.03818 -3.73259,-1.03818 z m 29.7155,26.03562 c -0.2479,-0.014 -0.50212,0.0443 -0.73122,0.18448 l -28.9817,17.38964 -28.98169,-17.38964 c -0.61093,-0.3712 -1.40233,-0.16754 -1.76837,0.44338 -0.36604,0.61094 -0.17012,1.40234 0.4408,1.76837 l 29.64677,17.7891 c 0.20364,0.12372 0.43307,0.18293 0.66249,0.18293 0.22942,0 0.45886,-0.0592 0.6625,-0.18293 l 29.64418,-17.78651 c 0.60835,-0.36603 0.80685,-1.16001 0.4408,-1.76837 l 0.003,-0.003 c -0.22877,-0.38021 -0.62397,-0.60448 -1.03714,-0.62786 z m -59.42635,9.02373 c -0.41317,0.0226 -0.80785,0.24449 -1.03663,0.62632 -0.36604,0.61093 -0.17012,1.40232 0.4408,1.76837 l 29.64419,17.7891 c 0.2088,0.12633 0.43822,0.18293 0.66249,0.18293 0.43821,0 0.86357,-0.22419 1.10588,-0.62632 v -0.003 c 0.36604,-0.61093 0.17012,-1.40233 -0.4408,-1.76837 l -29.64419,-17.78651 c -0.2291,-0.13823 -0.48384,-0.1965 -0.73174,-0.18294 z m 49.04404,3.61115 c -0.71147,0 -1.28933,0.57735 -1.28933,1.28881 v 9.02219 h -9.02167 c -0.71146,0 -1.28933,0.57735 -1.28933,1.28881 0,0.71146 0.57787,1.28881 1.28933,1.28881 h 9.02167 v 9.02219 c 0,0.71146 0.57786,1.28881 1.28933,1.28881 0.71145,0 1.28881,-0.57735 1.28881,-1.28881 v -9.02219 h 9.02219 c 0.71146,0 1.28881,-0.57735 1.28881,-1.28881 0,-0.71146 -0.57735,-1.28881 -1.28881,-1.28881 h -9.02219 v -9.02219 c 0,-0.71146 -0.57736,-1.28881 -1.28881,-1.28881 z" /><path
       d="m 452.64401,380.95303 c -0.63492,-0.93094 -0.95149,-2.01837 -0.95149,-3.10046 v 0 c 0,-1.40132 0.53478,-2.80714 1.59987,-3.87132 l 8.02344,-8.02256 c 1.06509,-1.06597 2.47358,-1.60074 3.8749,-1.60074 v 0 c 0.86388,0 1.73043,0.20212 2.51738,0.60721 0.49185,0.25214 0.9524,0.58307 1.36199,0.99353 l 8.02256,8.02256 c 1.06597,1.06509 1.59986,2.47358 1.59986,3.87491 0,1.40132 -0.53389,2.8116 -1.59986,3.87848 v 0 l -8.02256,8.02253 c -0.56966,0.56966 -1.23588,0.98728 -1.94773,1.25288 -0.62062,0.23153 -1.27526,0.3479 -1.92806,0.3479 h -0.003 c -1.4022,0 -2.81069,-0.53478 -3.87578,-1.60078 l -4.54741,-4.54649 c 0,0 0,0 0,-7e-4 l -1.24571,-1.24574 c 0,0 0,0 0,0 l -2.22944,-2.22941 c -0.24404,-0.24403 -0.46056,-0.50618 -0.64926,-0.78161 z m 20.76333,2.58268 2.74275,-2.74276 c 0.0734,-0.0733 0.14298,-0.14939 0.21024,-0.22612 -0.46948,-0.51064 -1.16703,-0.83791 -2.28934,-0.44983 -2.16414,0.74943 -3.66294,3.16396 -2.41453,3.49753 0.58575,0.15548 1.18937,6.9e-4 1.75098,-0.0788 z m -18.35234,-1.9236 2.51024,2.51023 c 0.69215,-0.61079 1.74919,-1.22963 3.00298,-2.13553 2.25713,-1.63295 -1.63295,-3.26502 -2.59343,-3.74524 -0.95953,-0.48022 0,-1.44067 1.00875,-1.87259 1.00874,-0.43196 0.66892,2.74005 1.87262,1.53635 1.15273,-1.15182 -1.96831,-2.49683 0.69576,-4.10561 2.66582,-1.60791 -1.17598,-1.17598 -1.17598,-2.66496 0,-1.48807 1.68125,-1.68033 1.68125,-2.83218 0,-0.314 -0.22443,-0.51865 -0.55178,-0.65101 l -7.27138,7.27134 c -0.21022,0.21023 -0.39345,0.43821 -0.54907,0.67876 0.49185,0.23152 1.10889,0.28695 1.55336,0.28695 1.05613,0 1.63204,1.63295 0.57591,2.68912 -0.84955,0.85046 -1.06597,2.18649 -0.75923,3.03428 z m 22.29342,-4.07164 c -0.3194,-0.19841 -0.95331,-0.35415 -1.16077,-0.33529 -0.27986,0.027 -0.37382,0.4981 0.41495,0.69127 0.33982,0.0831 0.59826,0.12167 0.75566,0.0858 6.9e-4,-0.0419 0.002,-0.0841 0.002,-0.12607 0,-0.10545 -0.003,-0.21023 -0.0101,-0.31568 z m -8.20231,-9.62151 c -0.53657,0.40959 -0.88713,0.93002 -0.91573,1.16164 -0.11898,0.94796 0.82988,1.30386 0.35591,1.77782 -0.47397,0.47397 -3.26499,1.48184 -2.60861,1.77782 1.75368,0.78877 -1.21711,0.67876 0,1.89588 0.60454,0.60453 2.5138,-0.46235 2.31172,-1.1849 -0.0564,-0.20483 0.5276,-0.97479 0.99444,-0.56879 0.40421,0.35145 1.65262,0.73778 1.65262,2.80627 0,1.10085 0.94791,2.17398 1.91731,1.91105 0.80487,-0.21834 0.93898,-1.22962 0.44,-1.59986 -0.63853,-0.47397 1.07223,-1.0463 2.81428,0.83346 0.33631,0.36307 0.76461,0.38903 1.16882,0.29169 -0.1565,-0.77086 -0.5312,-1.5033 -1.1259,-2.09888 z m -5.37103,-1.98351 c 0.17541,0.17439 0.44892,0.26632 0.86387,0.21292 1.81537,-0.23355 0.13487,1.25917 0.998,1.63653 0.53748,0.23525 1.69467,-0.18792 2.43691,-0.93718 -0.80037,-0.77266 -1.83862,-1.1572 -2.88313,-1.1572 -0.48022,0 -0.96044,0.0815 -1.41565,0.24505 z m 4.37659,22.85591 c -1.22517,0.21901 -2.83037,0.6582 -4.17089,1.05524 0.39346,0.11898 0.80125,0.17813 1.21083,0.17813 1.06776,0 2.12838,-0.40242 2.93592,-1.20996 z m -1.07672,-17.49293 c 0.49276,-0.0663 0.10545,-0.61796 -0.17441,-0.74048 -0.27918,-0.12236 -1.16969,-0.0598 -0.83971,0.3434 0.24877,0.30419 0.52223,0.46326 1.01408,0.39708 z m 1.99961,5.05622 c -0.30217,-1.24304 -3.2024,-1.69643 -4.59209,-0.6841 -2.04879,1.49255 -2.37698,4.36584 -0.7852,4.52861 1.59094,0.16258 3.04056,1.70448 2.24107,3.23012 -0.79858,1.52651 0.96582,5.24492 2.90192,2.5478 1.93613,-2.69625 0.97207,-3.22298 1.12501,-4.70837 0.15109,-1.4845 1.97187,-3.36784 1.52652,-3.91603 -0.44713,-0.5491 -2.18114,-0.0237 -2.41723,-0.99803 z"
       fill="#000000"
       id="path1-4"
       style="stroke-width:0.264583" /></g></svg>
