<?xml version="1.0" encoding="UTF-8" standalone="no"?>
<!-- Created with Inkscape (http://www.inkscape.org/) -->

<svg
   width="74.301346mm"
   height="74.347168mm"
   viewBox="0 0 74.301346 74.347168"
   version="1.1"
   id="svg1"
   xml:space="preserve"
   xmlns="http://www.w3.org/2000/svg"
   xmlns:svg="http://www.w3.org/2000/svg"><defs
     id="defs1" /><g
     id="layer1"
     transform="translate(-48.722479,-98.656247)"><path
       style="color:#000000;font-style:normal;font-variant:normal;font-weight:normal;font-stretch:normal;font-size:medium;line-height:normal;font-family:sans-serif;font-variant-ligatures:normal;font-variant-position:normal;font-variant-caps:normal;font-variant-numeric:normal;font-variant-alternates:normal;font-variant-east-asian:normal;font-feature-settings:normal;font-variation-settings:normal;text-indent:0;text-align:start;text-decoration-line:none;text-decoration-style:solid;text-decoration-color:#000000;letter-spacing:normal;word-spacing:normal;text-transform:none;writing-mode:lr-tb;direction:ltr;text-orientation:mixed;dominant-baseline:auto;baseline-shift:baseline;text-anchor:start;white-space:normal;shape-padding:0;shape-margin:0;inline-size:0;clip-rule:nonzero;display:inline;overflow:visible;visibility:visible;isolation:auto;mix-blend-mode:normal;color-interpolation:sRGB;color-interpolation-filters:linearRGB;solid-color:#000000;solid-opacity:1;vector-effect:none;fill:#000000;fill-opacity:1;fill-rule:nonzero;stroke:none;stroke-linecap:butt;stroke-linejoin:miter;stroke-miterlimit:4;stroke-dasharray:none;stroke-dashoffset:0;stroke-opacity:1;-inkscape-stroke:none;color-rendering:auto;image-rendering:auto;shape-rendering:auto;text-rendering:auto;enable-background:accumulate;stop-color:#000000;stop-opacity:1"
       d="m 53.226871,172.89811 c -3.34559,-0.82538 -5.16568,-3.91984 -4.21381,-7.16422 0.41248,-1.4059 0.90082,-1.92968 14.61549,-15.67586 l 14.18876,-14.22135 -14.18876,-14.22135 c -13.71467,-13.74618 -14.20301,-14.26996 -14.61549,-15.67586 -0.65275,-2.22484 -0.21726,-3.9292 1.42309,-5.56955 1.64035,-1.640362 3.34471,-2.075842 5.56955,-1.423102 1.40587,0.41247 1.92951,0.90066 15.65942,14.599092 l 14.20491,14.17234 1.80238,-1.61224 c 0.99131,-0.88673 7.33879,-7.16435 14.105499,-13.95026 6.76672,-6.78592 12.74487,-12.568142 13.28477,-12.849382 1.90701,-0.99338 5.03932,-0.45636 6.48021,1.111002 1.36465,1.48443 1.80997,4.29349 0.992,6.2575 -0.28158,0.67608 -4.80928,5.38907 -14.47913,15.07164 l -14.069449,14.08796 14.181919,14.22246 c 11.54592,11.57893 14.24573,14.41917 14.52526,15.28079 1.53987,4.74654 -2.54299,8.8294 -7.28954,7.28953 -0.86161,-0.27952 -3.70168,-2.97916 -15.27968,-14.52415 L 85.902911,143.92228 71.681561,158.1031 c -10.86649,10.83551 -14.43981,14.24646 -15.14739,14.45912 -1.48637,0.4467 -2.45812,0.54539 -3.3073,0.33589 z"
       id="path1" /></g></svg>
