<?xml version="1.0" encoding="UTF-8" standalone="no"?>
<!-- Created with Inkscape (http://www.inkscape.org/) -->

<svg
   width="66.832405mm"
   height="60.000443mm"
   viewBox="0 0 66.832405 60.000443"
   version="1.1"
   id="svg1"
   xml:space="preserve"
   xmlns="http://www.w3.org/2000/svg"
   xmlns:svg="http://www.w3.org/2000/svg"><defs
     id="defs1" /><g
     id="layer1"
     transform="translate(-172.26283,-365.96362)"><path
       id="path490-5"
       style="baseline-shift:baseline;display:inline;overflow:visible;vector-effect:none;fill:#000000;stroke-width:0.999996;paint-order:markers stroke fill;enable-background:accumulate;stop-color:#000000"
       d="m 174.29141,366.29805 c -1.42226,-0.0116 -2.03555,0.88879 -2.02851,2.10479 0.0208,3.43773 0.007,6.8761 0.007,10.3142 0,3.52387 -0.002,7.04783 8.1e-4,10.5717 9.4e-4,1.16294 0.56247,1.85583 1.58026,1.96603 0.60853,0.0655 1.0579,-0.23456 1.46678,-0.65804 2.32262,-2.40457 4.6505,-4.80401 6.97914,-7.20278 0.25931,-0.26713 0.51789,-0.53497 0.77726,-0.80206 0.9956,-1.02491 1.93911,-1.02494 2.93879,-0.0143 0.99451,1.00573 1.97272,2.02831 2.98793,3.01224 0.88136,0.85415 2.3081,0.51792 2.6937,-0.62134 0.10717,-0.31782 0.15615,-0.67162 0.15689,-1.009 0.01,-5.20889 0.0111,-10.41776 0.005,-15.62627 -8.1e-4,-0.83224 -0.30874,-1.42641 -0.84448,-1.7505 a 20.15501,20.15501 0 0 0 -2.42144,1.91215 20.15501,20.15501 0 0 1 2.42144,-1.91215 c -0.31316,-0.18944 -0.70358,-0.28768 -1.15827,-0.28421 -5.18729,0.0388 -10.37497,0.0424 -15.56188,-4.7e-4 z m 1.19831,3.28165 c 2.00159,0.0139 4.00285,0.0201 6.00397,0.0204 -2.00112,-3.9e-4 -4.00238,-0.007 -6.00397,-0.0204 z m 0,0 c 0.0119,3.05607 0.007,6.105 0.007,9.13734 0,-3.03234 0.006,-6.08127 -0.007,-9.13734 z m 10.99798,1.22837 a 20.15501,20.15501 0 0 0 -0.28229,0.38386 20.15501,20.15501 0 0 1 0.28229,-0.38386 z m -0.94415,1.34757 a 20.15501,20.15501 0 0 0 -0.25512,0.39864 20.15501,20.15501 0 0 1 0.25512,-0.39864 z m -1.69281,3.22681 a 20.15501,20.15501 0 0 0 -0.1707,0.43775 20.15501,20.15501 0 0 1 0.1707,-0.43775 z m -0.5622,1.54832 a 20.15501,20.15501 0 0 0 -0.14018,0.44347 20.15501,20.15501 0 0 1 0.14018,-0.44347 z m 1.00329,1.61605 c -0.15808,0.009 -0.31333,0.0272 -0.46492,0.0524 -0.37902,0.0633 -0.73736,0.17351 -1.07435,0.3152 0.33699,-0.14169 0.69533,-0.25185 1.07435,-0.3152 0.15159,-0.0255 0.30684,-0.0431 0.46492,-0.0524 z m -2.64411,0.9904 c -0.15627,0.11188 -0.30464,0.22922 -0.44443,0.34952 0.13981,-0.12027 0.28814,-0.23765 0.44443,-0.34952 z m 5.91432,0.0773 c 0.13396,0.10081 0.26141,0.20507 0.38244,0.31139 0.12101,0.10628 0.23538,0.21465 0.34284,0.32331 -0.10751,-0.10863 -0.22183,-0.21699 -0.34284,-0.32331 -0.12093,-0.10628 -0.24858,-0.21069 -0.38244,-0.31139 z m -6.38259,0.29231 c -0.14216,0.12354 -0.27588,0.2503 -0.3996,0.37768 0.12385,-0.12751 0.25729,-0.25402 0.3996,-0.37768 z m 1.26412,0.8321 a 20.15501,20.15501 0 0 0 -0.0539,0.46206 20.15501,20.15501 0 0 1 0.0539,-0.46206 z" /><path
       d="m 214.31738,394.58767 c -1.01539,0 -2.03062,0.36819 -2.76624,1.10381 l -8.47803,8.4801 1.84433,1.84433 8.09718,-8.09666 v 28.0448 h 2.60863 v -28.04738 l 8.09718,8.09666 1.84123,-1.84175 -8.47752,-8.4801 c -0.73562,-0.73562 -1.75137,-1.10381 -2.76676,-1.10381 z"
       style="stroke-width:0.101428"
       id="path536" /><path
       d="m 184.41688,384.93865 c -0.85087,0 -1.04568,0 -1.57965,0.41429 -0.28409,0.22042 -0.7757,0.83463 -1.12509,1.36648 -2e-4,0.0379 -0.003,0.0752 -0.003,0.11317 0,3.31551 0.80353,6.58911 2.33216,9.54464 -4.62763,2.48597 -7.54941,7.29622 -7.54941,12.62817 0,7.90922 6.43561,14.34744 14.34744,14.34744 h 16.95555 v -2.60863 h -16.95555 c -6.47189,0 -11.73882,-5.26692 -11.73882,-11.73881 0,-4.76067 2.84839,-9.01778 7.25951,-10.84379 l 1.40611,-0.58187 -0.79013,-1.30122 c -1.73992,-2.86161 -2.65824,-6.13042 -2.65824,-9.44593 0,-0.63958 0.0347,-1.27111 0.0992,-1.89394 z"
       style="stroke-width:0.101428"
       id="path535" /><path
       d="m 194.23851,367.70817 c 0.001,0.96667 -0.002,1.93342 -0.001,2.90009 2.50326,-1.29231 5.33407,-2.03554 8.34006,-2.03554 8.79875,0 16.34302,6.27616 17.93948,14.92622 l 0.16174,0.8816 0.8816,0.16175 c 8.64745,1.59906 14.92622,9.1454 14.92622,17.94154 0,9.1796 -6.81597,16.77862 -15.65124,18.05161 v 2.63447 c 10.27782,-1.29125 18.25987,-10.06652 18.25987,-20.68866 0,-9.75799 -6.75763,-18.16732 -16.19178,-20.32538 1.6e-4,7e-4 3.6e-4,0.001 5.2e-4,0.002 l -0.003,-0.003 c 6.9e-4,1.6e-4 0.001,3.6e-4 0.002,5.2e-4 -2.15545,-9.43415 -10.5679,-16.19178 -20.32589,-16.19178 -2.96388,0 -5.78304,0.62509 -8.33902,1.74408 z"
       style="stroke-width:0.101428"
       id="path532" /></g></svg>
