<?xml version="1.0" encoding="UTF-8" standalone="no"?>
<!-- Created with Inkscape (http://www.inkscape.org/) -->

<svg
   width="55.751732mm"
   height="68.692421mm"
   viewBox="0 0 55.751732 68.692421"
   version="1.1"
   id="svg1"
   xml:space="preserve"
   xmlns="http://www.w3.org/2000/svg"
   xmlns:svg="http://www.w3.org/2000/svg"><defs
     id="defs1"><rect
       x="879.09845"
       y="1201.8801"
       width="620.3764"
       height="159.52817"
       id="rect536-9" /></defs><g
     id="layer1"
     transform="translate(-328.50968,-370.19447)"><path
       id="path1-3"
       style="stroke-width:0.264583"
       d="m 339.75962,370.19446 c -6.20249,0 -11.24996,5.04747 -11.24996,11.24996 v 37.50003 c 0,6.20248 5.04747,11.24996 11.24996,11.24996 h 14.07408 v -2.5001 h -14.07408 c -4.82495,0 -8.74985,-3.92492 -8.74985,-8.74986 v -37.50003 c 0,-4.82504 3.9249,-8.74986 8.74985,-8.74986 h 13.78779 c 0.83717,0 1.65743,0.0943 2.46238,0.23978 v 13.51029 c 0,3.44494 2.8048,6.24975 6.24975,6.24975 h 13.51029 c 0.14551,0.80787 0.23978,1.62739 0.23978,2.46238 v 14.7283 h 2.5001 v -14.7283 c 0,-4.34003 -1.68989,-8.42218 -4.75991,-11.48974 l -8.71265,-8.71265 c -3.06993,-3.07001 -7.14971,-4.75991 -11.48974,-4.75991 z m 18.7477,3.44733 c 1.76003,0.6822 3.38492,1.70531 4.75991,3.07785 l 8.71265,8.71213 0.003,0.003 c 1.37499,1.37499 2.3973,2.99989 3.07733,4.75992 h -12.80232 c -2.0675,0 -3.75015,-1.68215 -3.75015,-3.74964 z" /><text
       xml:space="preserve"
       transform="matrix(0.12397911,0,0,0.12397911,206.3692,245.45133)"
       id="text536-7"
       style="font-weight:950;font-size:96px;font-family:Axiforma;-inkscape-font-specification:'Axiforma weight=950';text-align:center;writing-mode:lr-tb;direction:ltr;white-space:pre;shape-inside:url(#rect536-9);display:inline;fill:#008000;fill-opacity:1;stroke:#000000;stroke-width:23.1086;stroke-linejoin:round;stroke-dasharray:none;stroke-opacity:1;paint-order:markers stroke fill"><tspan
         x="1030.2621"
         y="1288.2809"
         id="tspan4"><tspan
           style="font-weight:600;-inkscape-font-specification:'Axiforma Semi-Bold';fill:#000000;stroke:none"
           id="tspan3">&lt;XML&gt;</tspan></tspan></text><path
       d="m 370.81891,412.00186 c -7.41242,0 -13.4425,6.03008 -13.4425,13.4425 0,7.41242 6.03008,13.4425 13.4425,13.4425 7.41242,0 13.4425,-6.03008 13.4425,-13.4425 0,-7.41242 -6.03008,-13.4425 -13.4425,-13.4425 z m 0,24.64459 c -6.17682,0 -11.20208,-5.02526 -11.20208,-11.20209 0,-6.17683 5.02526,-11.20208 11.20208,-11.20208 6.17683,0 11.20209,5.02525 11.20209,11.20208 0,6.17683 -5.02526,11.20209 -11.20209,11.20209 z m -1.1202,-14.56271 v 6.72125 c 0,0.61835 -0.50186,1.12021 -1.12021,1.12021 -0.61836,0 -1.12021,-0.50186 -1.12021,-1.12021 v -6.72125 c 0,-0.61836 0.50185,-1.12021 1.12021,-1.12021 0.61835,0 1.12021,0.50185 1.12021,1.12021 z m 4.48083,0 v 6.72125 c 0,0.61835 -0.50186,1.12021 -1.12021,1.12021 -0.61836,0 -1.12021,-0.50186 -1.12021,-1.12021 v -6.72125 c 0,-0.61836 0.50185,-1.12021 1.12021,-1.12021 0.61835,0 1.12021,0.50185 1.12021,1.12021 z"
       id="path1-78"
       style="stroke-width:5.64444" /></g></svg>
