<?xml version="1.0" encoding="UTF-8" standalone="no"?>
<!-- Created with Inkscape (http://www.inkscape.org/) -->

<svg
   version="1.1"
   id="svg1"
   width="439.95731"
   height="494.13843"
   viewBox="0 0 439.95731 494.13843"
   sodipodi:docname="login.png"
   xmlns:inkscape="http://www.inkscape.org/namespaces/inkscape"
   xmlns:sodipodi="http://sodipodi.sourceforge.net/DTD/sodipodi-0.dtd"
   xmlns="http://www.w3.org/2000/svg"
   xmlns:svg="http://www.w3.org/2000/svg">
  <defs
     id="defs1" />
  <sodipodi:namedview
     id="namedview1"
     pagecolor="#505050"
     bordercolor="#eeeeee"
     borderopacity="1"
     inkscape:showpageshadow="0"
     inkscape:pageopacity="0"
     inkscape:pagecheckerboard="0"
     inkscape:deskcolor="#505050">
    <inkscape:page
       x="0"
       y="0"
       width="439.95731"
       height="494.13843"
       id="page2"
       margin="0"
       bleed="0" />
  </sodipodi:namedview>
  <g
     inkscape:groupmode="layer"
     inkscape:label="Image"
     id="g1"
     transform="translate(560.63878,179.14822)">
    <path
       id="path8-8"
       style="baseline-shift:baseline;display:inline;overflow:visible;vector-effect:none;fill:#ffffff;stroke-width:0.906622;enable-background:accumulate;stop-color:#000000"
       sodipodi:type="inkscape:offset"
       inkscape:radius="25.509829"
       inkscape:original="M -268.93164 109.48438 C -275.23914 109.66276 -281.0825 113.68803 -283.98047 119.21484 C -286.63277 124.02915 -286.90404 130.13036 -284.41406 135.06641 C -281.50509 140.746 -276.53246 144.92113 -272.0625 149.33008 C -271.07523 150.29837 -270.11224 151.29224 -269.18945 152.32227 C -292.10024 152.33267 -315.01119 152.30149 -337.92188 152.33789 C -343.18167 152.45351 -348.7033 152.91574 -353.33008 155.65234 C -356.92949 157.73027 -359.41934 161.42024 -360.33398 165.44141 C -361.51882 170.05324 -360.94039 175.19778 -358.24414 179.1875 C -354.79832 184.42497 -348.68682 187.40939 -342.57227 188.09766 C -322.54781 190.13373 -302.39432 189.12636 -282.32031 188.60352 C -278.25082 188.49142 -274.18011 188.40318 -270.10938 188.35352 C -275.06558 192.88725 -280.39521 197.30076 -283.74219 203.23438 C -286.34377 207.77278 -286.92993 213.42094 -285.18555 218.36523 C -283.34213 223.91124 -278.62108 228.48062 -272.88281 229.79883 C -267.77044 231.0327 -262.3199 229.75919 -257.87109 227.08789 C -251.36037 223.23529 -246.44088 217.35663 -241.41992 211.82031 C -238.35552 208.29399 -234.9351 205.10581 -231.40234 202.05664 C -224.7529 196.19658 -217.8323 190.41259 -212.82617 183.00977 C -209.73404 178.42386 -207.58345 172.91724 -208.11719 167.30664 C -208.48426 162.59632 -211.16845 158.44781 -214.33789 155.0957 C -217.41178 151.81943 -220.84544 148.89701 -223.82031 145.52344 C -232.31127 136.1769 -240.05792 126.03942 -249.85742 117.97852 C -254.3298 114.37838 -259.30907 111.10393 -264.98047 109.81836 C -266.27823 109.5532 -267.60763 109.44016 -268.93164 109.48438 z "
       d="m -269.71094,83.990234 c -16.58345,0.490572 -29.63457,9.796154 -36.73437,23.167966 -3.33777,6.14664 -5.1613,12.84443 -5.29492,19.66407 -8.74452,2.8e-4 -17.46641,-0.008 -26.22266,0.006 a 25.51238,25.51238 0 0 0 -0.51953,0.006 c -6.33494,0.13926 -16.55495,0.25613 -27.69922,6.79883 -10.32993,6.00478 -16.47782,15.48746 -18.91406,25.8086 -2.70071,10.8454 -1.65358,23.0161 5.62695,33.88281 8.6136,13.00326 21.69955,18.73364 34.04297,20.12305 a 25.51238,25.51238 0 0 0 0.27344,0.0293 c 11.54135,1.17352 22.71108,1.43469 33.52343,1.35156 0.23283,3.92734 0.96193,7.87794 2.31446,11.78125 4.6572,13.80034 15.43952,24.48565 30.59765,28.01368 12.93101,3.07393 24.68608,-0.11127 33.9043,-5.62696 11.40384,-6.76804 17.74466,-15.02821 22.28906,-20.03906 a 25.51238,25.51238 0 0 0 0.35938,-0.4043 c 1.89311,-2.17848 4.38974,-4.56173 7.42969,-7.18554 a 25.51238,25.51238 0 0 0 0.19921,-0.17188 c 6.3092,-5.56021 15.17638,-12.56216 22.83985,-23.89453 a 25.51238,25.51238 0 0 0 0.0195,-0.0293 c 5.29146,-7.84771 10.18519,-18.66543 8.96094,-32.17578 -1.08493,-13.00914 -7.65307,-21.7721 -13.06446,-27.5 -4.3469,-4.62669 -7.54691,-7.40157 -8.9082,-8.94531 a 25.51238,25.51238 0 0 0 -0.25195,-0.2793 c -7.51041,-8.26718 -15.90356,-19.55701 -28.71289,-30.093746 a 25.51238,25.51238 0 0 0 -0.20899,-0.169922 c -5.79119,-4.661743 -13.84053,-10.529474 -25.48047,-13.167969 a 25.51238,25.51238 0 0 0 -0.53125,-0.115234 c -3.22872,-0.659696 -6.51961,-0.939145 -9.83789,-0.833985 z m -36.16211,106.556636 c -0.0122,0.0213 -0.0171,0.0451 -0.0293,0.0664 -0.0187,0.033 -0.0399,0.0548 -0.0586,0.0879 z"
       transform="matrix(1.1321588,0,0,1.0745827,39.04098,-14.025677)" />
    <path
       id="path8"
       style="baseline-shift:baseline;display:inline;overflow:visible;vector-effect:none;fill:#ff1100;enable-background:accumulate;stop-color:#000000;stop-opacity:1"
       sodipodi:type="inkscape:offset"
       inkscape:radius="0"
       inkscape:original="M -268.93164 109.48438 C -275.23914 109.66276 -281.0825 113.68803 -283.98047 119.21484 C -286.63277 124.02915 -286.90404 130.13036 -284.41406 135.06641 C -281.50509 140.746 -276.53246 144.92113 -272.0625 149.33008 C -271.07523 150.29837 -270.11224 151.29224 -269.18945 152.32227 C -292.10024 152.33267 -315.01119 152.30149 -337.92188 152.33789 C -343.18167 152.45351 -348.7033 152.91574 -353.33008 155.65234 C -356.92949 157.73027 -359.41934 161.42024 -360.33398 165.44141 C -361.51882 170.05324 -360.94039 175.19778 -358.24414 179.1875 C -354.79832 184.42497 -348.68682 187.40939 -342.57227 188.09766 C -322.54781 190.13373 -302.39432 189.12636 -282.32031 188.60352 C -278.25082 188.49142 -274.18011 188.40318 -270.10938 188.35352 C -275.06558 192.88725 -280.39521 197.30076 -283.74219 203.23438 C -286.34377 207.77278 -286.92993 213.42094 -285.18555 218.36523 C -283.34213 223.91124 -278.62108 228.48062 -272.88281 229.79883 C -267.77044 231.0327 -262.3199 229.75919 -257.87109 227.08789 C -251.36037 223.23529 -246.44088 217.35663 -241.41992 211.82031 C -238.35552 208.29399 -234.9351 205.10581 -231.40234 202.05664 C -224.7529 196.19658 -217.8323 190.41259 -212.82617 183.00977 C -209.73404 178.42386 -207.58345 172.91724 -208.11719 167.30664 C -208.48426 162.59632 -211.16845 158.44781 -214.33789 155.0957 C -217.41178 151.81943 -220.84544 148.89701 -223.82031 145.52344 C -232.31127 136.1769 -240.05792 126.03942 -249.85742 117.97852 C -254.3298 114.37838 -259.30907 111.10393 -264.98047 109.81836 C -266.27823 109.5532 -267.60763 109.44016 -268.93164 109.48438 z "
       d="m -268.93164,109.48438 c -6.3075,0.17838 -12.15086,4.20365 -15.04883,9.73046 -2.6523,4.81431 -2.92357,10.91552 -0.43359,15.85157 2.90897,5.67959 7.8816,9.85472 12.35156,14.26367 0.98727,0.96829 1.95026,1.96216 2.87305,2.99219 -22.91079,0.0104 -45.82174,-0.0208 -68.73243,0.0156 -5.25979,0.11562 -10.78142,0.57785 -15.4082,3.31445 -3.59941,2.07793 -6.08926,5.7679 -7.0039,9.78907 -1.18484,4.61183 -0.60641,9.75637 2.08984,13.74609 3.44582,5.23747 9.55732,8.22189 15.67187,8.91016 20.02446,2.03607 40.17795,1.0287 60.25196,0.50586 4.06949,-0.1121 8.1402,-0.20034 12.21093,-0.25 -4.9562,4.53373 -10.28583,8.94724 -13.63281,14.88086 -2.60158,4.5384 -3.18774,10.18656 -1.44336,15.13085 1.84342,5.54601 6.56447,10.11539 12.30274,11.4336 5.11237,1.23387 10.56291,-0.0396 15.01172,-2.71094 6.51072,-3.8526 11.43021,-9.73126 16.45117,-15.26758 3.0644,-3.52632 6.48482,-6.7145 10.01758,-9.76367 6.64944,-5.86006 13.57004,-11.64405 18.57617,-19.04687 3.09213,-4.58591 5.24272,-10.09253 4.70898,-15.70313 -0.36707,-4.71032 -3.05126,-8.85883 -6.2207,-12.21094 -3.07389,-3.27627 -6.50755,-6.19869 -9.48242,-9.57226 -8.49096,-9.34654 -16.23761,-19.48402 -26.03711,-27.54492 -4.47238,-3.60014 -9.45165,-6.87459 -15.12305,-8.16016 -1.29776,-0.26516 -2.62716,-0.3782 -3.95117,-0.33398 z" />
    <path
       d="m -331.78933,90.911374 c -9.61999,-0.11356 -19.31597,0.41015 -28.22657,0.41015 -47.43227,0 -95.97907,10.192686 -140,27.798826 -15.59792,6.23834 -33.62513,12.29556 -46.99609,22.73047 -7.81343,6.09774 -12.22842,15.68814 -12.91406,25.4707 -1.5495,22.10803 -0.0898,44.83374 -0.0898,67 0,15.03345 0.0485,29.78428 12.03907,40.81446 17.53877,16.134 50.06903,10.18554 71.96093,10.18554 h 181 c -1.78024,-12.10858 -3.41385,-20.85181 0,-33 -11.20425,-8.53677 -16.85158,-21.36142 -18.75658,-35.49661 -18.94089,0 -49.80182,0.42913 -65.92288,-11.56186 -28.75098,-21.38526 -25.98717,-60.85387 6.132,-77.0168 14.61438,-7.35419 43.77156,-5.99091 59.66484,-5.99091 0.88977,-10.89389 4.74572,-18.70701 9.88262,-27.933816 -8.60946,-2.54576 -18.15345,-3.29659 -27.77343,-3.41015 z"
       style="fill:#000000;fill-opacity:1"
       id="path6"
       sodipodi:nodetypes="sssssssscccssccss" />
    <path
       d="m -210.56472,22.213312 c 5.91823,0.127295 11.85336,0.506803 17.54882,0.506803 10.72694,0 21.64798,-0.976447 32,2.867453 37.54395,13.940706 39,52.644494 39,90.455942 v 67.14733 c 0,34.87821 7.9802,82.73783 -15.08984,110.37698 -21.30045,25.51906 -62.32874,22.66251 -90.91016,19.16748 -15.25475,-1.86539 -48.89401,-22.08188 -34.34765,-44.081 11.39542,-17.23387 24.17477,1.9318 35.34765,6.77298 6.96344,3.01722 14.70011,2.22505 22,2.22505 15.97089,0 36.90025,4.16312 47.03125,-13.6593 7.28052,-12.8079 3.96875,-33.18523 3.96875,-47.79758 V 104.66261 c 0,-17.08635 1.26248,-35.049056 -15,-43.356341 -11.30016,-5.772417 -28.79129,-2.167266 -41,-2.167266 -5.50333,0 -11.74289,-0.906694 -17,1.289252 -10.95934,4.577854 -21.38048,22.822443 -33.7871,8.709054 -19.00848,-21.623363 17.68334,-43.213573 32.7871,-45.919279 5.6316,-1.008849 11.53294,-1.132002 17.45118,-1.004718 z"
       style="fill:#000000;fill-opacity:1;stroke-width:1"
       id="path4" />
    <path
       d="m -354.56668,-179.10035 c -3.53425,0.10447 -7.03167,0.3805 -10.44922,0.84571 -16.36037,2.22699 -32.14658,7.46191 -46,16.57812 -64.89546,42.70432 -68.97113,141.023804 -4,186.113284 10.86113,7.53754 23.16786,13.3009 36,16.50976 12.87126,3.21863 26.75369,4.67404 40,3.08985 16.9863,-2.0315 33.48838,-7.18458 48,-16.41016 66.84767,-42.497527 69.51982,-143.582974 3,-187.951174 -10.66159,-7.11121 -22.51587,-12.50781 -35,-15.4707 -10.02276,-2.37872 -20.94802,-3.61809 -31.55078,-3.30469 z"
       style="fill:#000000;fill-opacity:1"
       id="path3" />
  </g>
</svg>
