<?xml version="1.0" encoding="UTF-8" standalone="no"?>
<!-- Created with Inkscape (http://www.inkscape.org/) -->

<svg
   width="50.00005mm"
   height="74.245918mm"
   viewBox="0 0 50.00005 74.245918"
   version="1.1"
   id="svg1"
   xml:space="preserve"
   xmlns="http://www.w3.org/2000/svg"
   xmlns:svg="http://www.w3.org/2000/svg"><defs
     id="defs1"><rect
       x="879.09845"
       y="1201.8801"
       width="620.3764"
       height="159.52817"
       id="rect536" /></defs><g
     id="layer1"
     transform="translate(-257.39572,-370.55207)"><path
       id="path1-8"
       style="stroke-width:0.264583"
       d="m 268.64568,370.55207 c -6.20258,0 -11.24996,5.04747 -11.24996,11.24996 v 37.50004 c 0,4.34207 2.47775,8.11032 6.08955,9.98492 v -2.9347 c -2.17156,-1.59372 -3.58945,-4.15603 -3.58945,-7.05022 v -37.50004 c 0,-4.82495 3.92482,-8.75037 8.74986,-8.75037 h 13.78727 c 0.83717,0 1.65786,0.0957 2.4629,0.2403 v 13.50977 c 0,3.44504 2.8047,6.25026 6.24974,6.25026 h 13.51029 c 0.14551,0.80787 0.23978,1.62739 0.23978,2.46238 v 23.7877 c 0,4.82504 -3.92481,8.74985 -8.74985,8.74985 h -19.61999 v 2.50011 h 19.61999 c 6.20248,0 11.24996,-5.04738 11.24996,-11.24996 v -23.7877 c 0,-4.33993 -1.6899,-8.42226 -4.75992,-11.48973 l -8.71265,-8.71265 c -3.07002,-3.07002 -7.15022,-4.75992 -11.49025,-4.75992 z m 18.74769,3.44734 c 1.75993,0.68221 3.38493,1.70489 4.75992,3.07733 l 8.71264,8.71265 0.002,0.003 c 1.37499,1.37499 2.39791,2.99989 3.07785,4.75992 h -12.80284 c -2.0675,0 -3.74964,-1.68266 -3.74964,-3.75016 z" /><path
       d="m 269.77378,444.79797 c -1.01539,0 -2.03062,-0.36819 -2.76624,-1.10381 l -8.47803,-8.4801 1.84433,-1.84433 8.09718,8.09666 v -28.0448 h 2.60863 v 28.04738 l 8.09718,-8.09666 1.84123,1.84175 -8.47752,8.4801 c -0.73562,0.73562 -1.75137,1.10381 -2.76676,1.10381 z"
       style="stroke-width:0.101428"
       id="path536-6" /><text
       xml:space="preserve"
       transform="matrix(0.12397911,0,0,0.12397911,134.93125,245.45133)"
       id="text536"
       style="font-weight:950;font-size:96px;font-family:Axiforma;-inkscape-font-specification:'Axiforma weight=950';text-align:center;writing-mode:lr-tb;direction:ltr;white-space:pre;shape-inside:url(#rect536);display:inline;opacity:1;fill:#008000;fill-opacity:1;stroke:#000000;stroke-width:23.1086;stroke-linejoin:round;stroke-dasharray:none;stroke-opacity:1;paint-order:markers stroke fill"><tspan
         x="1030.2621"
         y="1288.2809"
         id="tspan2"><tspan
           style="font-weight:600;-inkscape-font-specification:'Axiforma Semi-Bold';fill:#000000;stroke:none"
           id="tspan1">&lt;XML&gt;</tspan></tspan></text></g></svg>
